GRF
version=1
nRows=21
nColumns=19
inDegrees=no
endheader
time	plate1_ground_force_vx	plate1_ground_force_vy	plate1_ground_force_vz	plate1_ground_force_px	plate1_ground_force_py	plate1_ground_force_pz	plate1_ground_torque_x	plate1_ground_torque_y	plate1_ground_torque_z	plate2_ground_force_vx	plate2_ground_force_vy	plate2_ground_force_vz	plate2_ground_force_px	plate2_ground_force_py	plate2_ground_force_pz	plate2_ground_torque_x	plate2_ground_torque_y	plate2_ground_torque_z
      0.87000000	     62.52206394	    414.45387962	      6.94758891	      1.02061945	      0.00000000	      0.17901887	     -0.00000000	      3.04972043	      0.00000000	    -64.08862410	    449.14928000	     -6.40605444	      1.44132518	      0.00000000	      0.21516293	      0.00000000	     -3.63390432	      0.00000000
      0.88000000	     62.52694720	    414.41694865	      6.95932038	      1.02067375	      0.00000000	      0.17900172	     -0.00000000	      3.05291721	      0.00000000	    -64.13903593	    449.26279557	     -6.50519587	      1.44141622	      0.00000000	      0.21528465	      0.00000000	     -3.62474724	      0.00000000
      0.89000000	     62.52934459	    414.27743837	      6.93824674	      1.02072427	      0.00000000	      0.17901373	      0.00000000	      3.05340702	      0.00000000	    -64.19065922	    449.33735584	     -6.60861648	      1.44154090	      0.00000000	      0.21541840	      0.00000000	     -3.61549144	      0.00000000
      0.90000000	     62.52301648	    414.02133045	      6.89582867	      1.02076335	      0.00000000	      0.17905549	      0.00000000	      3.05065917	      0.00000000	    -64.23116715	    449.35827195	     -6.69922702	      1.44167583	      0.00000000	      0.21554695	      0.00000000	     -3.60763473	      0.00000000
      0.91000000	     62.50632622	    413.66889697	      6.84750437	      1.02077889	      0.00000000	      0.17912182	      0.00000000	      3.04460443	      0.00000000	    -64.25328424	    449.32383552	     -6.76199086	      1.44179904	      0.00000000	      0.21565302	      0.00000000	     -3.60241061	      0.00000000
      0.92000000	     62.48160426	    413.26746523	      6.80739787	      1.02076136	      0.00000000	      0.17920290	      0.00000000	      3.03563505	      0.00000000	    -64.25722695	    449.24102672	     -6.78802649	      1.44189533	      0.00000000	      0.21572541	      0.00000000	     -3.60037028	      0.00000000
      0.93000000	     62.45292233	    412.87580822	      6.78376790	      1.02070901	      0.00000000	      0.17928658	      0.00000000	      3.02444101	      0.00000000	    -64.25046948	    449.12361266	     -6.77653297	      1.44195750	      0.00000000	      0.21576341	      0.00000000	     -3.60123188	      0.00000000
      0.94000000	     62.42398162	    412.54779084	      6.77697040	      1.02062830	      0.00000000	      0.17936130	      0.00000000	      3.01178979	      0.00000000	    -64.24477760	    448.99220011	     -6.73406587	      1.44198466	      0.00000000	      0.21577666	      0.00000000	     -3.60404918	      0.00000000
      0.95000000	     62.39728600	    412.32136084	      6.78079876	      1.02053035	      0.00000000	      0.17941875	      0.00000000	      2.99843858	      0.00000000	    -64.25146182	    448.87222404	     -6.67187221	      1.44198006	      0.00000000	      0.21578048	      0.00000000	     -3.60760020	      0.00000000
      0.96000000	     62.37469787	    412.21497170	      6.78656452	      1.02042621	      0.00000000	      0.17945538	      0.00000000	      2.98526452	      0.00000000	    -64.27669344	    448.78698501	     -6.60253804	      1.44195011	      0.00000000	      0.21578888	      0.00000000	     -3.61078906	     -0.00000000
      0.97000000	     62.35858129	    412.22968395	      6.78781898	      1.02032385	      0.00000000	      0.17947285	      0.00000000	      2.97347241	      0.00000000	    -64.31896885	    448.74807621	     -6.53701962	      1.44190407	      0.00000000	      0.21580890	      0.00000000	     -3.61287789	     -0.00000000
      0.98000000	     62.35244554	    412.35354123	      6.78317700	      1.02022792	      0.00000000	      0.17947724	      0.00000000	      2.96460610	      0.00000000	    -64.36996467	    448.74997675	     -6.48264506	      1.44185325	      0.00000000	      0.21583864	      0.00000000	     -3.61350891	     -0.00000000
      0.99000000	     62.36039644	    412.56570549	      6.77582857	      1.02014100	      0.00000000	      0.17947745	      0.00000000	      2.96020155	      0.00000000	    -64.41835403	    448.77442503	     -6.44232643	      1.44180894	      0.00000000	      0.21586941	      0.00000000	     -3.61261797	     -0.00000000
      1.00000000	     62.38552914	    412.83981798	      6.77041100	      1.02006483	      0.00000000	      0.17948277	     -0.00000000	      2.96120115	      0.00000000	    -64.45462908	    448.80345914	     -6.41507336	      1.44177989	      0.00000000	      0.21589042	      0.00000000	     -3.61035819	     -0.00000000
      1.01000000	     62.42812687	    413.14714092	      6.76951471	      1.02000067	      0.00000000	      0.17949989	     -0.00000000	      2.96746520	      0.00000000	    -64.47459661	    448.83299576	     -6.39769093	      1.44177071	      0.00000000	      0.21589388	      0.00000000	     -3.60705295	     -0.00000000
      1.02000000	     62.48467856	    413.45957307	      6.77206917	      1.01994924	      0.00000000	      0.17953024	     -0.00000000	      2.97768883	      0.00000000	    -64.48018697	    448.87745921	     -6.38710125	      1.44178203	      0.00000000	      0.21587863	      0.00000000	     -3.60311137	     -0.00000000
      1.03000000	     62.54824965	    413.75185781	      6.77433823	      1.01991131	      0.00000000	      0.17956886	     -0.00000000	      2.98979262	      0.00000000	    -64.47779002	    448.96165406	     -6.38225835	      1.44181160	      0.00000000	      0.21585105	      0.00000000	     -3.59887047	     -0.00000000
      1.04000000	     62.61004708	    414.00267783	      6.77248099	      1.01988861	      0.00000000	      0.17960582	     -0.00000000	      3.00159377	      0.00000000	    -64.47543192	    449.10456187	     -6.38461171	      1.44185567	      0.00000000	      0.21582313	      0.00000000	     -3.59443651	     -0.00000000
      1.05000000	     62.66156828	    414.19553656	      6.76486368	      1.01988406	      0.00000000	      0.17962998	     -0.00000000	      3.01145641	      0.00000000	    -64.48017430	    449.30491789	     -6.39678291	      1.44190983	      0.00000000	      0.21580836	      0.00000000	     -3.58964894	     -0.00000000
      1.06000000	     62.69664469	    414.32055725	      6.75285420	      1.01990018	      0.00000000	      0.17963361	     -0.00000000	      3.01869518	      0.00000000	    -64.49644224	    449.53710798	     -6.42021590	      1.44196931	      0.00000000	      0.21581694	      0.00000000	     -3.58421753	     -0.00000000
      1.07000000	     62.71282942	    414.37675916	      6.74001047	      1.01993596	      0.00000000	      0.17961567	     -0.00000000	      3.02365863	      0.00000000	    -64.52530544	    449.75969329	     -6.45326393	      1.44202909	      0.00000000	      0.21585212	      0.00000000	     -3.57795997	     -0.00000000
